<?xml version="1.0" encoding="UTF-8"?>
<!-- Generator: visioncortex VTracer 0.6.1 -->
<svg version="1.1" xmlns="http://www.w3.org/2000/svg" width="1280" height="1264">
<path d="M0 0 C1.56453634 -0.0020921 3.1290717 -0.00505889 4.69360495 -0.00880873 C8.96316901 -0.01653915 13.23264165 -0.01196755 17.50220409 -0.00525283 C22.1585654 -0.0001529 26.81491332 -0.00670973 31.47127271 -0.01173949 C39.62253731 -0.01894632 47.77377539 -0.01875392 55.9250412 -0.01364517 C68.04663922 -0.00606877 80.16821495 -0.00995368 92.28981283 -0.01606179 C113.94224854 -0.02658658 135.59467243 -0.02568305 157.24710926 -0.01990396 C176.1981359 -0.01487081 195.14915822 -0.0135604 214.10018539 -0.01594925 C215.98654526 -0.0161784 215.98654526 -0.0161784 217.9110134 -0.01641219 C223.01608961 -0.01703488 228.12116583 -0.01767168 233.22624204 -0.01833172 C268.85114601 -0.02288275 304.47604867 -0.02368838 340.10095215 -0.01620483 C340.77206845 -0.01606434 341.44318475 -0.01592384 342.13463791 -0.01577908 C353.03228902 -0.01348934 363.9299401 -0.01105034 374.82759118 -0.00859874 C418.03555347 0.00111124 461.24350337 0.00066481 504.45146561 -0.00905991 C515.33893075 -0.01150243 526.2263959 -0.01392459 537.11386108 -0.01620483 C538.11952899 -0.01641618 538.11952899 -0.01641618 539.14551342 -0.01663179 C575.37176234 -0.0241926 611.59801069 -0.02251786 647.82426 -0.01783538 C652.92121967 -0.01719396 658.01817934 -0.01656828 663.11513901 -0.01594925 C664.37011348 -0.01579109 665.62508795 -0.01563294 666.91809195 -0.01546999 C685.85254546 -0.013197 704.78699415 -0.015852 723.72144699 -0.02090836 C745.25829889 -0.02663104 766.79513715 -0.02518843 788.33198735 -0.01434687 C800.37883567 -0.00848223 812.42565442 -0.00807946 824.47250196 -0.01563922 C832.52755534 -0.02013558 840.5825851 -0.01731193 848.637635 -0.00862968 C853.22164346 -0.0038892 857.80559334 -0.00220965 862.38959989 -0.00944164 C915.73013092 -0.08702843 915.73013092 -0.08702843 933.87529373 12.25168228 C934.77634842 12.81242447 934.77634842 12.81242447 935.69560623 13.38449478 C937.1264508 14.28293207 938.50743401 15.25998398 939.87529373 16.25168228 C939.87529373 16.91168228 939.87529373 17.57168228 939.87529373 18.25168228 C940.45408279 18.48886978 941.03287186 18.72605728 941.62919998 18.97043228 C949.0927857 23.22792118 953.58189403 32.62552099 956.87529373 40.25168228 C957.33742264 41.32095963 957.33742264 41.32095963 957.80888748 42.41183853 C960.87648701 50.02946608 961.0206585 57.47605976 960.99834156 65.59276104 C960.9994954 66.62568078 961.00064925 67.65860051 961.00183806 68.72282085 C961.00449127 72.19440714 960.99999318 75.66594734 960.99554825 79.13753128 C960.99598421 81.6473266 960.99685959 84.15712187 960.99813741 86.66691691 C960.9999093 92.12894844 960.9985703 97.59096562 960.99449921 103.05299568 C960.98846247 111.17482379 960.98816356 119.29664503 960.9890412 127.41847498 C960.99035497 141.08089135 960.98701414 154.74330289 960.98102379 168.40571785 C960.97510748 181.93391252 960.97125799 195.46210518 960.97017097 208.99030113 C960.97010224 209.83133245 960.9700335 210.67236377 960.96996267 211.53888088 C960.96962434 215.81002543 960.96932296 220.08116999 960.9690358 224.35231454 C960.96693519 254.60759018 960.96019728 284.8628632 960.95073318 315.11813736 C960.94154935 344.51136638 960.93446544 373.90459469 960.93022537 403.29782486 C960.93009385 404.20379611 960.92996232 405.10976737 960.92982681 406.0431923 C960.92850829 415.14129871 960.92723248 424.23940513 960.92598795 433.33751155 C960.92345171 451.87152899 960.92063046 470.40554638 960.91763687 488.93956375 C960.91749958 489.7917345 960.91736229 490.64390524 960.91722084 491.52189935 C960.90801963 548.43182809 960.89215357 605.34175535 960.87529373 662.25168228 C960.21529373 662.25168228 959.55529373 662.25168228 958.87529373 662.25168228 C958.87529373 677.76168228 958.87529373 693.27168228 958.87529373 709.25168228 C955.64481424 710.86692203 952.10324742 710.43203397 948.55205154 710.45700455 C947.68976944 710.46690414 946.82748734 710.47680374 945.93907547 710.48700333 C943.06888486 710.51874126 940.19867851 710.54346251 937.32841873 710.56808853 C935.32131423 710.58868587 933.3142138 710.60968302 931.30711746 710.63106155 C927.08019158 710.67510784 922.85325142 710.71599289 918.62627029 710.75436783 C913.27229814 710.80297822 907.91839349 710.85660189 902.56449127 710.91234303 C897.40248352 710.96592504 892.24045355 711.01719035 887.07841873 711.06808853 C886.12136284 711.07764635 885.16430695 711.08720417 884.17824936 711.09705162 C878.67435974 711.15105394 873.17048722 711.19773701 867.66644669 711.23336029 C865.73470536 711.24604084 863.80297302 711.26013974 861.87125015 711.27537537 C858.86836926 711.29761513 855.86553161 711.31254692 852.86259842 711.32565689 C851.49249052 711.33719095 851.49249052 711.33719095 850.09470367 711.34895802 C845.5953743 711.36077898 841.27109159 711.34215621 836.87529373 710.25168228 C833.89759522 707.27398377 833.76135355 704.33537725 833.68584061 700.24924088 C833.66912308 699.47518906 833.65240555 698.70113724 833.63518143 697.9036293 C833.61481827 696.66439209 833.61481827 696.66439209 833.59404373 695.40011978 C833.57563431 694.54487717 833.55722488 693.68963455 833.5382576 692.80847549 C833.45968562 689.15425301 833.39169633 685.49985261 833.32304764 681.84543228 C833.27138556 679.17606706 833.21412904 676.50686272 833.15654373 673.83761978 C833.13618057 672.59230988 833.13618057 672.59230988 833.11540604 671.32184219 C833.12974622 667.15288841 833.12974622 667.15288841 831.87529373 663.25168228 C832.53529373 663.25168228 833.19529373 663.25168228 833.87529373 663.25168228 C833.8568269 661.91318299 833.8568269 661.91318299 833.83798701 660.5476433 C833.00704673 599.69652061 832.73373475 538.85640642 832.77175596 478.00003775 C832.77912338 465.86785178 832.78042475 453.73566687 832.78155167 441.60347898 C832.78370811 419.99060594 832.79027253 398.37773681 832.79985428 376.76486588 C832.80911882 355.84494419 832.8161546 334.92502359 832.82036209 314.00510025 C832.82062481 312.70251933 832.82088754 311.39993841 832.82115822 310.05788533 C832.82246383 303.5193148 832.8237274 296.98074426 832.82497013 290.44217372 C832.83523592 236.71200701 832.85341864 182.98184533 832.87529373 129.25168228 C832.13135819 129.25159406 831.38742265 129.25150584 830.62094361 129.25141494 C749.62258707 129.24163263 668.62423264 129.22566445 587.62588882 129.17738724 C585.81084785 129.17630806 585.81084785 129.17630806 583.95913938 129.17520708 C557.6616428 129.15953416 531.36414703 129.1427518 505.06665188 129.12482666 C492.17026506 129.11604286 479.27387807 129.1075042 466.377491 129.09909439 C465.09414919 129.09825334 463.81080737 129.0974123 462.48857641 129.09654576 C420.89584432 129.06940255 379.30312712 129.05844547 337.71038685 129.05588704 C294.96650693 129.05317227 252.22266466 129.03411822 209.47880223 128.99452113 C203.44077921 128.98893524 197.40275603 128.98353603 191.36473274 128.9782505 C190.17636952 128.97720447 188.9880063 128.97615843 187.76363207 128.9750807 C168.63845106 128.9587261 149.51330773 128.95958282 130.38812273 128.96688511 C111.15831429 128.97385971 91.92858413 128.96267985 72.6987967 128.93301938 C61.2756673 128.91595041 49.85273111 128.91275056 38.4296002 128.92950808 C30.79354506 128.93933693 23.15764775 128.93098125 15.52162121 128.9080218 C11.17410185 128.89546517 6.82696869 128.89064186 2.47945727 128.90805302 C-19.31845751 128.98874032 -37.88730273 129.01335589 -55.93720627 115.18918228 C-56.53468674 114.74252213 -57.13216721 114.29586197 -57.74775314 113.83566666 C-59.24576814 112.69032719 -60.69046184 111.47593484 -62.12470627 110.25168228 C-62.12470627 109.59168228 -62.12470627 108.93168228 -62.12470627 108.25168228 C-63.60970627 107.75668228 -63.60970627 107.75668228 -65.12470627 107.25168228 C-66.72224693 105.30109396 -68.15298033 103.39364625 -69.56220627 101.31418228 C-69.96254074 100.72733658 -70.36287521 100.14049088 -70.77534103 99.53586197 C-77.53067179 89.36761702 -80.52522971 78.35492978 -80.49970627 66.18918228 C-80.49809494 65.37280289 -80.49648361 64.55642349 -80.49482346 63.71530533 C-80.15072411 46.31636068 -73.71063679 31.75391498 -61.99970627 18.92355728 C-60.12470627 17.25168228 -60.12470627 17.25168228 -58.12470627 17.25168228 C-57.79470627 16.26168228 -57.46470627 15.27168228 -57.12470627 14.25168228 C-55.01736636 12.80622519 -52.97798373 11.54383761 -50.74970627 10.31418228 C-49.79523605 9.78413589 -49.79523605 9.78413589 -48.82148361 9.2433815 C-33.32249405 0.81942605 -17.33717523 -0.05957961 0 0 Z M953.87529373 39.25168228 C954.87529373 41.25168228 954.87529373 41.25168228 954.87529373 41.25168228 Z M837.87529373 707.25168228 C841.87529373 708.25168228 841.87529373 708.25168228 841.87529373 708.25168228 Z M932.87529373 707.25168228 C932.87529373 707.58168228 932.87529373 707.91168228 932.87529373 708.25168228 C935.18529373 708.25168228 937.49529373 708.25168228 939.87529373 708.25168228 C939.87529373 707.92168228 939.87529373 707.59168228 939.87529373 707.25168228 C937.56529373 707.25168228 935.25529373 707.25168228 932.87529373 707.25168228 Z " fill="#000000" transform="translate(109.12470626831055,180.74831771850586)"/>
<path d="M0 0 C1.09324585 -0.00365067 2.1864917 -0.00730133 3.31286621 -0.01106262 C6.9256139 -0.0191664 10.53791282 -0.00555803 14.15063477 0.0090332 C16.66260274 0.00955187 19.17457112 0.00903393 21.6865387 0.00752258 C26.95139568 0.0076123 32.21613674 0.01770126 37.48095703 0.03613281 C43.55842553 0.05728822 49.63570503 0.06081216 55.71320289 0.05457085 C61.56996198 0.04886525 67.42665373 0.05464289 73.2834034 0.0657444 C75.77088212 0.06959224 78.25836651 0.07074634 80.7458477 0.06915855 C84.22390408 0.06878742 87.70167416 0.08142254 91.1796875 0.09765625 C92.20689407 0.09517883 93.23410065 0.09270142 94.29243469 0.09014893 C99.3116141 0.12750879 103.45410969 0.37594452 108.15454102 2.37231445 C107.82454102 3.36231445 107.49454102 4.35231445 107.15454102 5.37231445 C107.12723393 7.20827235 107.16442574 9.0455417 107.24047852 10.88012695 C107.28430664 11.94875977 107.32813477 13.01739258 107.37329102 14.1184082 C107.42485352 15.23344727 107.47641602 16.34848633 107.52954102 17.49731445 C107.57336914 18.62008789 107.61719727 19.74286133 107.66235352 20.8996582 C107.40574415 26.00022109 107.40574415 26.00022109 109.15454102 30.37231445 C109.25425887 32.28689727 109.2853469 34.20513762 109.28735352 36.12231445 C109.28864258 37.28762695 109.28993164 38.45293945 109.29125977 39.65356445 C109.28739258 40.88075195 109.28352539 42.10793945 109.27954102 43.37231445 C109.2834082 44.59950195 109.28727539 45.82668945 109.29125977 47.09106445 C109.28932617 48.8390332 109.28932617 48.8390332 109.28735352 50.62231445 C109.28622559 51.6999707 109.28509766 52.77762695 109.28393555 53.88793945 C109.15454102 56.37231445 109.15454102 56.37231445 108.15454102 57.37231445 C108.05510129 59.45306855 108.02654506 61.53723294 108.02514648 63.62036133 C108.02339417 64.27239029 108.02164185 64.92441925 108.01983643 65.59620667 C108.01541898 67.76118598 108.0183555 69.92608424 108.02172852 72.09106445 C108.02105545 73.58939632 108.02008539 75.08772808 108.01882935 76.58605957 C108.01735252 79.73015378 108.01950644 82.87421963 108.02416992 86.01831055 C108.02986721 90.05717984 108.02658812 94.09598269 108.02059746 98.13484955 C108.01699143 101.22996526 108.01813062 104.3250651 108.02072525 107.42018127 C108.0213944 108.9097952 108.0205665 110.39941055 108.0182457 111.88902283 C108.01571848 113.9674768 108.01956069 116.04582176 108.02514648 118.12426758 C108.02594208 119.30927856 108.02673767 120.49428955 108.02755737 121.71520996 C107.85229228 124.29424785 107.85229228 124.29424785 109.15454102 125.37231445 C109.25842127 127.81188792 109.29660734 130.22341489 109.29320621 132.66373539 C109.29604843 133.43985276 109.29889065 134.21597012 109.301819 135.01560619 C109.31022594 137.64974253 109.31143887 140.28383524 109.3127594 142.91798401 C109.31732068 144.81213151 109.32232005 146.70627799 109.32772297 148.60042328 C109.34136298 153.83148409 109.3487393 159.06253837 109.35514963 164.29361236 C109.36312795 169.9248754 109.37683449 175.55612472 109.38986206 181.18737793 C109.4116614 190.95257197 109.42979318 200.71776738 109.445467 210.4829731 C109.46813423 224.60199868 109.49628136 238.72100909 109.52578627 252.84002184 C109.57350087 275.74457851 109.61676307 298.64914055 109.65722656 321.55371094 C109.69655461 343.80957522 109.73797181 366.06543401 109.78222656 388.32128906 C109.78358909 389.0069292 109.78495162 389.69256934 109.78635544 390.39898645 C109.80004044 397.28426747 109.81376801 404.16954841 109.82752678 411.05482928 C109.94296879 468.82731274 110.05122182 526.59980811 110.15454102 584.37231445 C110.90540109 584.37184651 111.65626117 584.37137857 112.42987458 584.37089645 C194.14850691 584.32007504 275.86714107 584.27295635 357.58578491 584.24528503 C358.80578928 584.24487086 360.02579365 584.24445669 361.28276785 584.24402997 C387.79451007 584.23505198 414.30625246 584.22674133 440.81799511 584.21911846 C453.81868623 584.21537634 466.81937731 584.21148669 479.82006836 584.20751953 C481.76069219 584.20693112 481.76069219 584.20693112 483.74052054 584.20633081 C525.7011553 584.19353876 567.66177798 584.17099887 609.62240541 584.14342279 C652.72977414 584.11514443 695.83713617 584.09666263 738.94451401 584.09056948 C745.02822924 584.08970497 751.11194444 584.08872806 757.19565964 584.08768272 C758.39306342 584.08748045 759.59046719 584.08727819 760.82415594 584.08706979 C780.12631647 584.08351979 799.42845635 584.06959259 818.73060845 584.05181835 C838.11926722 584.03418469 857.50790544 584.02740346 876.89657195 584.03181032 C888.42640382 584.03409813 899.95616067 584.02795482 911.48597904 584.00992182 C919.17909496 583.99870784 926.87216152 583.99829822 934.56528079 584.00681901 C938.95436081 584.01136669 943.34329853 584.01107925 947.73236354 583.99766491 C951.72198873 583.98556352 955.71136002 583.9871671 959.70098112 583.99989453 C961.13845547 584.0020445 962.57594824 583.99911928 964.01339901 583.99060872 C965.96108264 583.97980466 967.90884721 583.98925449 969.85653269 583.99971896 C971.47607951 583.99901705 971.47607951 583.99901705 973.12834445 583.99830096 C976.65458039 584.43411529 979.0433812 585.70043822 982.15454102 587.37231445 C984.1535123 587.71176241 986.1532974 588.04653061 988.15454102 588.37231445 C988.48454102 589.03231445 988.81454102 589.69231445 989.15454102 590.37231445 C990.82516602 591.08387695 990.82516602 591.08387695 992.52954102 591.80981445 C997.30305587 593.86736396 997.30305587 593.86736396 999.15454102 596.37231445 C999.15454102 597.03231445 999.15454102 597.69231445 999.15454102 598.37231445 C999.75008789 598.62883789 1000.34563477 598.88536133 1000.95922852 599.1496582 C1003.35150473 600.48201133 1004.581823 601.80600051 1006.27954102 603.93481445 C1008.36357736 606.58257111 1008.36357736 606.58257111 1011.15454102 608.37231445 C1011.15454102 609.03231445 1011.15454102 609.69231445 1011.15454102 610.37231445 C1012.14454102 610.70231445 1013.13454102 611.03231445 1014.15454102 611.37231445 C1014.48454102 613.68231445 1014.81454102 615.99231445 1015.15454102 618.37231445 C1016.14454102 618.70231445 1017.13454102 619.03231445 1018.15454102 619.37231445 C1018.25766602 620.32106445 1018.36079102 621.26981445 1018.46704102 622.24731445 C1018.83993396 625.66338946 1018.83993396 625.66338946 1022.15454102 627.37231445 C1025.19978073 633.29797217 1025.59883215 639.46047401 1025.46704102 645.99731445 C1025.47026367 646.80426758 1025.47348633 647.6112207 1025.47680664 648.44262695 C1025.43199761 653.4612379 1024.7539004 657.61616706 1023.15454102 662.37231445 C1022.82454102 663.36231445 1022.49454102 664.35231445 1022.15454102 665.37231445 C1021.49454102 666.36231445 1020.83454102 667.35231445 1020.15454102 668.37231445 C1019.49454102 668.37231445 1018.83454102 668.37231445 1018.15454102 668.37231445 C1018.15454102 670.68231445 1018.15454102 672.99231445 1018.15454102 675.37231445 C1016.83454102 675.70231445 1015.51454102 676.03231445 1014.15454102 676.37231445 C1014.27829102 677.25918945 1014.40204102 678.14606445 1014.52954102 679.05981445 C1014.15454102 682.37231445 1014.15454102 682.37231445 1011.27954102 684.99731445 C1010.24829102 685.78106445 1009.21704102 686.56481445 1008.15454102 687.37231445 C1007.82454102 688.03231445 1007.49454102 688.69231445 1007.15454102 689.37231445 C1005.54540448 692.59058753 1003.01827486 694.22451407 1000.15454102 696.37231445 C999.49454102 696.37231445 998.83454102 696.37231445 998.15454102 696.37231445 C998.15454102 697.03231445 998.15454102 697.69231445 998.15454102 698.37231445 C995.84454102 699.03231445 993.53454102 699.69231445 991.15454102 700.37231445 C991.15454102 701.03231445 991.15454102 701.69231445 991.15454102 702.37231445 C990.58864258 702.48188477 990.02274414 702.59145508 989.43969727 702.7043457 C988.33948242 702.94217773 988.33948242 702.94217773 987.21704102 703.18481445 C986.48614258 703.33563477 985.75524414 703.48645508 985.00219727 703.6418457 C984.3924707 703.88290039 983.78274414 704.12395508 983.15454102 704.37231445 C982.82454102 705.36231445 982.49454102 706.35231445 982.15454102 707.37231445 C978.19454102 707.70231445 974.23454102 708.03231445 970.15454102 708.37231445 C970.15454102 709.03231445 970.15454102 709.69231445 970.15454102 710.37231445 C968.83454102 710.37231445 967.51454102 710.37231445 966.15454102 710.37231445 C966.15454102 709.71231445 966.15454102 709.05231445 966.15454102 708.37231445 C965.16454102 708.37231445 964.17454102 708.37231445 963.15454102 708.37231445 C963.15454102 709.03231445 963.15454102 709.69231445 963.15454102 710.37231445 C959.66908048 711.44124988 956.45876493 711.49831444 952.82378435 711.49996495 C951.51059339 711.50298092 950.19740243 711.50599689 948.84441781 711.50910425 C947.38055425 711.50740518 945.9166908 711.50561444 944.45282745 711.50374222 C942.89644612 711.50539142 941.34006519 711.50747749 939.78368497 711.50996232 C935.48089608 711.51554444 931.17812703 711.51485374 926.87533567 711.51318473 C922.20391178 711.51245548 917.53249356 711.51747224 912.86107206 711.52175975 C903.58415269 711.52935184 894.30723906 711.53153342 885.0303169 711.5320888 C873.92315424 711.53300126 862.81599693 711.53966529 851.70883656 711.54643563 C824.85956277 711.56251052 798.01028954 711.56840064 771.1610118 711.57318438 C758.4635691 711.57551888 745.76612685 711.57912137 733.06868451 711.58287975 C690.2994478 711.59551547 647.53021114 711.60632877 604.76097264 711.60972021 C602.71643186 711.60988245 600.67189108 711.61004801 598.6273503 711.6102146 C594.52695129 711.6105484 590.42655228 711.61087888 586.32615328 711.61120915 C581.52552265 711.61159606 576.72489201 711.61198566 571.92426138 711.61238022 C570.55027865 711.61249264 569.17629592 711.61260406 567.80231319 711.61271447 C523.67807719 711.61626364 479.55385749 711.63134037 435.42962771 711.65465222 C388.1127429 711.67964068 340.79586953 711.69403704 293.47897673 711.69525027 C288.36175251 711.69542173 283.24452829 711.69563716 278.12730408 711.6958847 C276.23724684 711.69596836 276.23724684 711.69596836 274.30900662 711.6960537 C254.01519129 711.69720523 233.72139279 711.70823589 213.42758315 711.72277176 C193.03560117 711.73712555 172.6436408 711.74038007 152.25165516 711.73233178 C140.13207286 711.7278702 128.01256024 711.73175725 115.89298707 711.74757029 C107.79924029 711.75730468 99.70554245 711.75615677 91.61179614 711.74613406 C86.99889056 711.74073091 82.386119 711.74006771 77.77322441 711.75264278 C73.5735285 711.76399596 69.37407542 711.76144172 65.17438784 711.74797571 C63.66760669 711.74554777 62.16080675 711.74810425 60.65404633 711.75637218 C52.71980787 711.79703359 45.42947502 711.33701681 37.77050397 709.06431668 C34.25857693 708.13530455 30.83052128 707.92112156 27.21313477 707.77856445 C24.64840358 707.27243154 23.95176535 706.20707872 22.15454102 704.37231445 C20.05447029 703.73171978 20.05447029 703.73171978 17.77954102 703.43481445 C10.92376297 702.05260114 7.56657079 697.86741114 3.19360352 692.72387695 C0.0026875 689.04393166 -3.36363783 685.5253595 -6.70874023 681.9855957 C-9.56202886 678.49592461 -10.84545898 675.88676638 -10.84545898 671.37231445 C-11.50545898 671.37231445 -12.16545898 671.37231445 -12.84545898 671.37231445 C-17.35349616 657.62985044 -17.41146972 644.47225243 -17.35771179 630.12738037 C-17.36287722 627.57966602 -17.36979543 625.03195473 -17.37830478 622.48424935 C-17.39276312 616.967093 -17.39499934 611.45014589 -17.38619804 605.93298149 C-17.3731851 597.72915846 -17.38324629 589.52547398 -17.39790345 581.32165945 C-17.42194259 567.51689615 -17.42768752 553.71218303 -17.42300987 539.90740204 C-17.41846976 526.24428289 -17.42264951 512.58121004 -17.43821144 498.91809845 C-17.4391777 498.06717551 -17.44014397 497.21625258 -17.44113951 496.3395441 C-17.4460991 492.01770277 -17.45122413 487.69586166 -17.4564198 483.37402061 C-17.49295642 452.79223679 -17.51182458 422.21046575 -17.51953125 391.62866211 C-17.52708324 361.93627245 -17.54017102 332.24389617 -17.5625 302.55151367 C-17.56318489 301.63590596 -17.56386978 300.72029824 -17.56457542 299.77694484 C-17.58023889 278.88054748 -17.59766595 257.98415187 -17.61647511 237.08775711 C-17.61806361 235.31641647 -17.61965146 233.54507582 -17.62123865 231.77373518 C-17.62282098 230.00951736 -17.62440352 228.24529954 -17.62598628 226.48108172 C-17.62676688 225.61052214 -17.62754748 224.73996255 -17.62835174 223.84302237 C-17.63227221 219.47787351 -17.63622923 215.11272468 -17.64025626 210.74757591 C-17.65915271 190.20859296 -17.67299756 169.66961956 -17.67805193 149.13062832 C-17.68125539 136.26031244 -17.68749716 123.39000056 -17.69618019 110.51968721 C-17.70152951 102.36649258 -17.70391817 94.2133084 -17.70227619 86.06011213 C-17.7013386 79.98440577 -17.70548876 73.90871438 -17.71164141 67.83301058 C-17.71330075 65.36640895 -17.71323715 62.89980548 -17.7113361 60.43320403 C-17.70898436 57.09694596 -17.71268444 53.76074909 -17.71796703 50.4244957 C-17.71580098 49.45290487 -17.71363492 48.48131403 -17.71140322 47.48028105 C-17.71405903 46.59383991 -17.71671484 45.70739876 -17.71945113 44.79409575 C-17.71964803 44.03087484 -17.71984494 43.26765393 -17.72004781 42.48130511 C-17.84783327 40.33238706 -18.25558211 38.43832533 -18.84545898 36.37231445 C-17.85545898 35.87731445 -17.85545898 35.87731445 -16.84545898 35.37231445 C-16.84545898 34.05231445 -16.84545898 32.73231445 -16.84545898 31.37231445 C-17.50545898 31.04231445 -18.16545898 30.71231445 -18.84545898 30.37231445 C-18.18545898 30.37231445 -17.52545898 30.37231445 -16.84545898 30.37231445 C-16.88622559 29.73205322 -16.92699219 29.09179199 -16.96899414 28.43212891 C-17.14794351 25.51694336 -17.30936185 22.60103876 -17.47045898 19.68481445 C-17.56713867 18.17371094 -17.56713867 18.17371094 -17.66577148 16.63208008 C-17.71733398 15.65561523 -17.76889648 14.67915039 -17.82202148 13.6730957 C-17.87438965 12.7776001 -17.92675781 11.88210449 -17.98071289 10.95947266 C-17.82229329 7.92919734 -17.32624841 6.0276654 -15.84545898 3.37231445 C-11.12152511 -0.65630983 -5.87726971 -0.04364843 0 0 Z M1021.15454102 630.37231445 C1021.15454102 632.02231445 1021.15454102 633.67231445 1021.15454102 635.37231445 C1021.48454102 635.37231445 1021.81454102 635.37231445 1022.15454102 635.37231445 C1022.15454102 633.72231445 1022.15454102 632.07231445 1022.15454102 630.37231445 C1021.82454102 630.37231445 1021.49454102 630.37231445 1021.15454102 630.37231445 Z M1022.15454102 635.37231445 C1022.15454102 638.01231445 1022.15454102 640.65231445 1022.15454102 643.37231445 C1022.48454102 643.37231445 1022.81454102 643.37231445 1023.15454102 643.37231445 C1023.15454102 640.73231445 1023.15454102 638.09231445 1023.15454102 635.37231445 C1022.82454102 635.37231445 1022.49454102 635.37231445 1022.15454102 635.37231445 Z M1022.15454102 644.37231445 C1022.15454102 648.00231445 1022.15454102 651.63231445 1022.15454102 655.37231445 C1022.48454102 655.37231445 1022.81454102 655.37231445 1023.15454102 655.37231445 C1023.15454102 651.74231445 1023.15454102 648.11231445 1023.15454102 644.37231445 C1022.82454102 644.37231445 1022.49454102 644.37231445 1022.15454102 644.37231445 Z " fill="#F87D29" transform="translate(211.845458984375,346.627685546875)"/>
<path d="M0 0 C12.07388714 -0.10836757 24.14710844 -0.1394676 36.22143555 -0.13848877 C41.60893818 -0.13838573 46.99631319 -0.15222152 52.38378525 -0.16926098 C56.56331994 -0.18035552 60.74282299 -0.18240904 64.92237091 -0.18187904 C66.91107894 -0.1830559 68.89978787 -0.18746113 70.88848114 -0.19521141 C73.64848645 -0.20499254 76.40820309 -0.20214459 79.16821289 -0.19610596 C80.38676216 -0.20453522 80.38676216 -0.20453522 81.62992859 -0.21313477 C89.32020333 -0.17031191 89.32020333 -0.17031191 92.8762207 2.04681396 C95.1251682 5.86105337 95.1034288 9.35868887 95.04321289 13.71380615 C95.03696396 14.36332245 95.03071503 15.01283875 95.02427673 15.68203735 C95.00088851 17.81952826 94.96245991 19.95643704 94.9230957 22.09368896 C94.90197263 23.58955008 94.88149547 25.08542044 94.8616333 26.58129883 C94.81767304 29.71513124 94.76634126 32.84873237 94.7097168 35.98236084 C94.63804392 39.97759172 94.58388873 43.97282523 94.53525925 47.96839523 C94.4957957 51.05879736 94.44725394 54.14900726 94.39603424 57.23923492 C94.37263913 58.71103157 94.35190927 60.1828733 94.33400726 61.65474701 C94.2351155 69.34528046 93.92655243 76.59087452 91.8762207 84.04681396 C91.5462207 84.04681396 91.2162207 84.04681396 90.8762207 84.04681396 C90.5462207 85.69681396 90.2162207 87.34681396 89.8762207 89.04681396 C88.3912207 88.55181396 88.3912207 88.55181396 86.8762207 88.04681396 C86.3812207 89.53181396 86.3812207 89.53181396 85.8762207 91.04681396 C86.5362207 91.37681396 87.1962207 91.70681396 87.8762207 92.04681396 C84.47341995 101.44972233 76.93836228 108.24356963 69.8762207 115.04681396 C69.2162207 115.70681396 68.5562207 116.36681396 67.8762207 117.04681396 C67.1955957 117.19118896 66.5149707 117.33556396 65.8137207 117.48431396 C65.1743457 117.66993896 64.5349707 117.85556396 63.8762207 118.04681396 C63.3812207 119.53181396 63.3812207 119.53181396 62.8762207 121.04681396 C62.1130957 121.14993896 61.3499707 121.25306396 60.5637207 121.35931396 C57.61043555 122.11480552 56.91754236 122.91673919 54.8762207 125.04681396 C52.75355431 125.75436943 51.11038245 126.04681396 48.8762207 126.04681396 C46.86783874 126.68778693 44.86794252 127.35580844 42.8762207 128.04681396 C39.99356921 129.0076978 38.19959799 129.16352337 35.20825195 129.14447021 C34.31557617 129.14124756 33.42290039 129.1380249 32.50317383 129.13470459 C31.11001953 129.12213623 31.11001953 129.12213623 29.6887207 129.10931396 C28.27816406 129.10254639 28.27816406 129.10254639 26.83911133 129.09564209 C24.51808358 129.08386022 22.19718426 129.06740955 19.8762207 129.04681396 C19.8762207 128.38681396 19.8762207 127.72681396 19.8762207 127.04681396 C17.8962207 127.54181396 17.8962207 127.54181396 15.8762207 128.04681396 C15.8762207 127.38681396 15.8762207 126.72681396 15.8762207 126.04681396 C15.22395508 126.02103271 14.57168945 125.99525146 13.8996582 125.96868896 C8.06147876 125.58981006 4.5944427 124.75398839 -0.1237793 121.04681396 C-1.45495865 120.37585663 -2.78842885 119.70943104 -4.1237793 119.04681396 C-11.16703713 114.6332441 -20.64383911 107.39963247 -22.90893555 99.20697021 C-22.97983398 98.49411865 -23.05073242 97.78126709 -23.1237793 97.04681396 C-23.7837793 97.04681396 -24.4437793 97.04681396 -25.1237793 97.04681396 C-28.31651666 91.10003597 -30.73213341 85.65713195 -32.1237793 79.04681396 C-32.4537793 78.05681396 -32.7837793 77.06681396 -33.1237793 76.04681396 C-33.26189125 73.82028941 -33.34218134 71.59003691 -33.39257812 69.35980225 C-33.40890289 68.68464569 -33.42522766 68.00948914 -33.44204712 67.31387329 C-33.4940246 65.0817073 -33.53828538 62.84949162 -33.58081055 60.61712646 C-33.59591864 59.85383907 -33.61102673 59.09055168 -33.62659264 58.30413437 C-33.70566034 54.26548666 -33.77828588 50.22677727 -33.84619141 46.18792725 C-33.91770166 42.01900113 -34.0127052 37.85095367 -34.11296558 33.68263435 C-34.18565444 30.47431733 -34.24026821 27.26587178 -34.29004478 24.05712509 C-34.31710491 22.52043969 -34.35105342 20.98385932 -34.39206886 19.44748306 C-34.44789901 17.29569305 -34.47796681 15.14496337 -34.50195312 12.99261475 C-34.52558426 11.76922394 -34.54921539 10.54583313 -34.57356262 9.28536987 C-34.0296777 5.36925823 -32.98339982 3.74286826 -30.1237793 1.04681396 C-28.13250732 0.3903656 -28.13250732 0.3903656 -25.94311523 0.34637451 C-24.64232025 0.30417534 -24.64232025 0.30417534 -23.31524658 0.26112366 C-22.33940613 0.25614365 -21.36356567 0.25116364 -20.3581543 0.24603271 C-19.2922406 0.22224045 -18.2263269 0.19844818 -17.12811279 0.17393494 C-13.89258333 0.11339995 -10.6579778 0.08051088 -7.42196655 0.0613327 C-4.94791848 0.04570297 -2.47398784 0.02324896 0 0 Z M91.8762207 8.04681396 C92.8762207 10.04681396 92.8762207 10.04681396 92.8762207 10.04681396 Z M90.8762207 16.04681396 C91.8762207 18.04681396 91.8762207 18.04681396 91.8762207 18.04681396 Z M91.8762207 31.04681396 C91.8762207 37.31681396 91.8762207 43.58681396 91.8762207 50.04681396 C92.2062207 50.04681396 92.5362207 50.04681396 92.8762207 50.04681396 C92.8762207 43.77681396 92.8762207 37.50681396 92.8762207 31.04681396 C92.5462207 31.04681396 92.2162207 31.04681396 91.8762207 31.04681396 Z M91.8762207 54.04681396 C92.8762207 57.04681396 92.8762207 57.04681396 92.8762207 57.04681396 Z M91.8762207 58.04681396 C91.8762207 61.01681396 91.8762207 63.98681396 91.8762207 67.04681396 C92.2062207 67.04681396 92.5362207 67.04681396 92.8762207 67.04681396 C92.8762207 64.07681396 92.8762207 61.10681396 92.8762207 58.04681396 C92.5462207 58.04681396 92.2162207 58.04681396 91.8762207 58.04681396 Z M90.8762207 67.04681396 C91.8762207 70.04681396 91.8762207 70.04681396 91.8762207 70.04681396 Z M89.8762207 70.04681396 C89.8762207 72.68681396 89.8762207 75.32681396 89.8762207 78.04681396 C90.2062207 78.04681396 90.5362207 78.04681396 90.8762207 78.04681396 C90.8762207 75.40681396 90.8762207 72.76681396 90.8762207 70.04681396 C90.5462207 70.04681396 90.2162207 70.04681396 89.8762207 70.04681396 Z M88.8762207 79.04681396 C89.8762207 82.04681396 89.8762207 82.04681396 89.8762207 82.04681396 Z M87.8762207 82.04681396 C88.8762207 85.04681396 88.8762207 85.04681396 88.8762207 85.04681396 Z M11.8762207 124.04681396 C11.8762207 124.37681396 11.8762207 124.70681396 11.8762207 125.04681396 C13.5262207 125.04681396 15.1762207 125.04681396 16.8762207 125.04681396 C16.8762207 124.71681396 16.8762207 124.38681396 16.8762207 124.04681396 C15.2262207 124.04681396 13.5762207 124.04681396 11.8762207 124.04681396 Z M16.8762207 125.04681396 C16.8762207 125.37681396 16.8762207 125.70681396 16.8762207 126.04681396 C18.8562207 126.04681396 20.8362207 126.04681396 22.8762207 126.04681396 C22.8762207 125.71681396 22.8762207 125.38681396 22.8762207 125.04681396 C20.8962207 125.04681396 18.9162207 125.04681396 16.8762207 125.04681396 Z M32.8762207 125.04681396 C32.8762207 125.37681396 32.8762207 125.70681396 32.8762207 126.04681396 C36.1762207 126.04681396 39.4762207 126.04681396 42.8762207 126.04681396 C42.8762207 125.71681396 42.8762207 125.38681396 42.8762207 125.04681396 C39.5762207 125.04681396 36.2762207 125.04681396 32.8762207 125.04681396 Z " fill="#010000" transform="translate(976.123779296875,1094.9531860351563)"/>
<path d="M0 0 C0.495 0.99 0.495 0.99 1 2 C3.3140622 2.73075648 5.64828869 3.40138258 8 4 C8 4.66 8 5.32 8 6 C8.969375 6.28875 9.93875 6.5775 10.9375 6.875 C14 8 14 8 15 10 C15.825 10.474375 16.65 10.94875 17.5 11.4375 C20 13 20 13 21 16 C21.99 16.99 21.99 16.99 23 18 C23 18.66 23 19.32 23 20 C23.94875 20.61875 24.8975 21.2375 25.875 21.875 C28.91775241 23.94407164 29.7306605 24.72087295 31 28 C31.66 28.99 32.32 29.98 33 31 C33 33.33333333 33 35.66666667 33 38 C33.5561393 41.68938839 34.25945379 45.34355306 35 49 C35.66 49 36.32 49 37 49 C36.67 51.31 36.34 53.62 36 56 C36.66 56 37.32 56 38 56 C38.02715383 57.74991334 38.04646551 59.49994945 38.0625 61.25 C38.07410156 62.22453125 38.08570313 63.1990625 38.09765625 64.203125 C38 67 38 67 37.48632812 68.7956543 C36.86148091 71.62785586 36.99382546 74.16882277 37.12109375 77.06640625 C37.16975586 78.26595947 37.21841797 79.4655127 37.26855469 80.70141602 C37.35218262 82.61265259 37.35218262 82.61265259 37.4375 84.5625 C37.53721155 87.18742273 37.63486365 89.81242449 37.73046875 92.4375 C37.7773584 93.72398438 37.82424805 95.01046875 37.87255859 96.3359375 C38.04330036 101.24492683 38.1873787 106.15091933 38.25 111.0625 C38.27118896 111.82183838 38.29237793 112.58117676 38.31420898 113.36352539 C38.33486554 116.49426169 38.18575564 118.65963012 36.671875 121.43359375 C33.10216531 124.77811147 28.69279728 124.1416169 24.1105957 124.12939453 C22.90490936 124.13202301 22.90490936 124.13202301 21.67486572 124.13470459 C19.00848243 124.13911601 16.34216526 124.136184 13.67578125 124.1328125 C11.81267789 124.1334866 9.94957462 124.13445751 8.08647156 124.13571167 C4.16986255 124.13718838 0.25327629 124.13503809 -3.66333008 124.13037109 C-8.64005991 124.12472511 -13.6167352 124.12792002 -18.59346294 124.13394356 C-22.45008234 124.13759401 -26.30668928 124.13638935 -30.1633091 124.13381577 C-31.99499328 124.13315614 -33.82667865 124.13394054 -35.65836143 124.13629532 C-45.64823801 124.14630394 -55.55217398 123.96035487 -65.51521301 123.19577026 C-70.04554089 122.94126303 -74.50864545 123.09970007 -79.03515625 123.35546875 C-83.12154175 122.8655332 -86.32957523 122.21900935 -89 119 C-90.05958475 114.6183876 -89.97735792 110.30237759 -89.9375 105.8125 C-89.95361328 104.55630859 -89.96972656 103.30011719 -89.98632812 102.00585938 C-90.02594774 98.33632855 -90.02013162 94.66963212 -90 91 C-90.00030669 89.17057248 -90.00147858 87.34114469 -90.00390625 85.51171875 C-90.00651448 82.71424265 -89.98262223 79.92257849 -89.9375 77.125 C-89.98968042 74.51597912 -90.21055023 72.46703052 -91 70 C-90.34 70 -89.68 70 -89 70 C-89.16048828 68.81857422 -89.16048828 68.81857422 -89.32421875 67.61328125 C-90.26480437 59.06710012 -89.32311479 52.22812462 -87 44 C-86.63841797 42.50726563 -86.63841797 42.50726563 -86.26953125 40.984375 C-84.87008559 35.3247384 -82.98827124 30.98045206 -80 26 C-79.22514168 23.22861403 -79.22514168 23.22861403 -79 21 C-78.01 20.67 -77.02 20.34 -76 20 C-75.67 19.01 -75.34 18.02 -75 17 C-69.61177365 11.17956298 -62.77354529 7.00618239 -56 3 C-55.33226562 2.59652344 -54.66453125 2.19304688 -53.9765625 1.77734375 C-38.37187015 -6.88095601 -16.34031305 -6.53612522 0 0 Z M29 30 C29.66 31.32 30.32 32.64 31 34 C30.67 32.68 30.34 31.36 30 30 C29.67 30 29.34 30 29 30 Z M31 34 C32 36 32 36 32 36 Z M35 77 C35 81.29 35 85.58 35 90 C35.33 90 35.66 90 36 90 C36 85.71 36 81.42 36 77 C35.67 77 35.34 77 35 77 Z M35 91 C35 93.97 35 96.94 35 100 C35.33 100 35.66 100 36 100 C36 97.03 36 94.06 36 91 C35.67 91 35.34 91 35 91 Z M35 103 C36 105 36 105 36 105 Z M35 106 C36 110 36 110 36 110 Z M35 114 C35 115.65 35 117.3 35 119 C35.33 119 35.66 119 36 119 C36 117.35 36 115.7 36 114 C35.67 114 35.34 114 35 114 Z M-83 120 C-83 120.33 -83 120.66 -83 121 C-76.07 121 -69.14 121 -62 121 C-62 120.67 -62 120.34 -62 120 C-68.93 120 -75.86 120 -83 120 Z M29 120 C29 120.33 29 120.66 29 121 C30.65 121 32.3 121 34 121 C34 120.67 34 120.34 34 120 C32.35 120 30.7 120 29 120 Z " fill="#F57C29" transform="translate(284,20)"/>
<path d="M0 0 C2.5 1.5625 2.5 1.5625 4.5 3.5625 C5.03625 4.036875 5.5725 4.51125 6.125 5 C7.5 6.5625 7.5 6.5625 7.5 9.5625 C8.49 9.8925 9.48 10.2225 10.5 10.5625 C11.25 12.5 11.25 12.5 11.5 14.5625 C11.17 15.2225 10.84 15.8825 10.5 16.5625 C10.53144016 18.12593341 10.5990374 19.68875471 10.6875 21.25 C10.7718147 26.53116596 9.48598355 29.27014865 6.5 33.5625 C5.18 33.5625 3.86 33.5625 2.5 33.5625 C2.17 34.8825 1.84 36.2025 1.5 37.5625 C0.82453125 37.61148438 0.1490625 37.66046875 -0.546875 37.7109375 C-1.43890625 37.78570313 -2.3309375 37.86046875 -3.25 37.9375 C-4.57257813 38.04191406 -4.57257813 38.04191406 -5.921875 38.1484375 C-8.50410161 38.56315874 -10.19846087 39.37983277 -12.5 40.5625 C-18.6098041 39.81740194 -22.83656089 37.62768691 -26.8984375 32.953125 C-29.77036122 29.20136338 -31.07340149 26.36173318 -31.5 21.5625 C-31.81674575 20.22512906 -32.14270064 18.88961192 -32.5 17.5625 C-31.84 17.5625 -31.18 17.5625 -30.5 17.5625 C-30.726875 17.046875 -30.95375 16.53125 -31.1875 16 C-31.6534922 12.36526083 -30.30145562 9.63113924 -28.5 6.5625 C-25.9375 3.625 -25.9375 3.625 -23.5 1.5625 C-22.84 1.5625 -22.18 1.5625 -21.5 1.5625 C-21.17 0.9025 -20.84 0.2425 -20.5 -0.4375 C-18.625 -1 -18.625 -1 -16.5 -1.4375 C-10.99006163 -3.27414612 -5.29075969 -2.17299059 0 0 Z M6.5 25.5625 C6.83 26.2225 7.16 26.8825 7.5 27.5625 C8.16 26.9025 8.82 26.2425 9.5 25.5625 C8.51 25.5625 7.52 25.5625 6.5 25.5625 Z " fill="#090401" transform="translate(393.5,766.4375)"/>
<path d="M0 0 C9.08424081 1.24722159 15.62722316 3.6853997 21.4375 11 C23.97660437 14.64695208 25 17.5475831 25 22 C23.91891704 25.01158825 22.78816788 27.31774818 21 30 C20.83300768 33.12521833 20.83300768 33.12521833 21 36 C18.69 36.99 16.38 37.98 14 39 C14 39.99 14 40.98 14 42 C11 43 11 43 7 43 C7 43.33 7 43.66 7 44 C-5.38750479 44.43464929 -5.38750479 44.43464929 -9.6640625 40.44921875 C-11.19919642 38.68343663 -12.61554496 36.88572324 -14 35 C-14.80050781 34.09314453 -14.80050781 34.09314453 -15.6171875 33.16796875 C-18.44203835 28.73917716 -18.13047581 23.11962234 -18 18 C-17.30421084 15.2700247 -16.42717074 13.45473368 -15 11 C-14.34 11 -13.68 11 -13 11 C-12.7525 10.195625 -12.505 9.39125 -12.25 8.5625 C-11.8375 7.716875 -11.425 6.87125 -11 6 C-8.9375 5.375 -8.9375 5.375 -7 5 C-6.67 4.01 -6.34 3.02 -6 2 C-5.67 2.33 -5.34 2.66 -5 3 C-5 2.67 -5 2.34 -5 2 C-3.35 2 -1.7 2 0 2 C0 1.34 0 0.68 0 0 Z M22 17 C23 19 23 19 23 19 Z " fill="#0E0702" transform="translate(380,846)"/>
<path d="M0 0 C6.81598387 -0.33278764 11.92122066 -0.24201565 18 3 C18 3.66 18 4.32 18 5 C19.32 5 20.64 5 22 5 C22.12375 5.61875 22.2475 6.2375 22.375 6.875 C22.87197356 9.19120832 22.87197356 9.19120832 25 11 C25.73857615 14.69004938 25.88522119 18.43634495 26.125 22.1875 C26.23070312 23.21681641 26.33640625 24.24613281 26.4453125 25.30664062 C26.70244047 29.48764849 26.8550724 32.6508437 24.56640625 36.26196289 C19.51901676 41.24753461 14.63354784 42.07781947 7.75 42.0625 C6.86570312 42.09537109 5.98140625 42.12824219 5.0703125 42.16210938 C0.75241746 42.26320813 -2.21289222 42.25693759 -6 40 C-11.92338114 34.21832654 -13.84061042 27.82768141 -14.0625 19.71484375 C-13.7072188 13.41970496 -11.0648823 8.41726428 -8 3 C-7.67 3.66 -7.34 4.32 -7 5 C-4.00847418 4.22520264 -4.00847418 4.22520264 -1 3 C-0.67 2.01 -0.34 1.02 0 0 Z " fill="#080401" transform="translate(459,847)"/>
<path d="M0 0 C5.38750263 0.00010304 10.77487764 -0.01373275 16.1623497 -0.03077221 C20.3418844 -0.04186675 24.52138745 -0.04392027 28.70093536 -0.04339027 C30.68964339 -0.04456713 32.67835232 -0.04897236 34.66704559 -0.05672264 C37.4270509 -0.06650377 40.18676755 -0.06365583 42.94677734 -0.05761719 C44.16532661 -0.06604645 44.16532661 -0.06604645 45.40849304 -0.074646 C53.09876778 -0.03182314 53.09876778 -0.03182314 56.65478516 2.18530273 C58.90373265 5.99954214 58.88199325 9.49717764 58.82177734 13.85229492 C58.81552841 14.50181122 58.80927948 15.15132751 58.80284119 15.82052612 C58.77945297 17.95801703 58.74102436 20.09492581 58.70166016 22.23217773 C58.68053709 23.72803885 58.66005993 25.22390921 58.64019775 26.7197876 C58.59623749 29.85362001 58.54490572 32.98722114 58.48828125 36.12084961 C58.41660837 40.11608049 58.36245319 44.111314 58.3138237 48.106884 C58.27436015 51.19728613 58.2258184 54.28749603 58.17459869 57.37772369 C58.15120358 58.84952034 58.13047372 60.32136207 58.11257172 61.79323578 C57.91639556 77.04930164 57.91639556 77.04930164 55.65478516 84.18530273 C54.66478516 84.84530273 53.67478516 85.50530273 52.65478516 86.18530273 C52.96350845 83.5806373 53.27660239 80.97662583 53.59228516 78.37280273 C53.67929688 77.63481445 53.76630859 76.89682617 53.85595703 76.13647461 C54.23695062 73.01797153 54.6584789 70.17422151 55.65478516 67.18530273 C55.70167006 65.24837009 55.69226303 63.30994023 55.65478516 61.37280273 C55.57001454 51.29569623 56.14092082 41.24665711 56.65478516 31.18530273 C55.99478516 31.18530273 55.33478516 31.18530273 54.65478516 31.18530273 C54.62567194 28.10198934 54.60794834 25.01871149 54.59228516 21.93530273 C54.58390625 21.06260742 54.57552734 20.18991211 54.56689453 19.29077148 C54.56367187 18.44643555 54.56044922 17.60209961 54.55712891 16.73217773 C54.55189209 15.95712891 54.54665527 15.18208008 54.54125977 14.38354492 C54.65481167 12.18478927 55.12006008 10.31363011 55.65478516 8.18530273 C55.65478516 6.86530273 55.65478516 5.54530273 55.65478516 4.18530273 C15.39478516 4.18530273 -24.86521484 4.18530273 -66.34521484 4.18530273 C-66.34521484 3.19530273 -66.34521484 2.20530273 -66.34521484 1.18530273 C-44.2411752 -0.05203368 -22.13152556 -0.00232577 0 0 Z " fill="#AB561C" transform="translate(1012.34521484375,1094.814697265625)"/>
<path d="M0 0 C0.33 0 0.66 0 1 0 C1.56920607 11.22213982 2.09894936 22.45088769 2.25 33.6875 C2.2819043 34.86082886 2.2819043 34.86082886 2.31445312 36.05786133 C2.33445402 39.28193371 2.22029716 41.59245025 0.671875 44.45703125 C-2.91491932 47.76727367 -7.31264232 47.14160239 -11.8894043 47.12939453 C-12.69319519 47.13114685 -13.49698608 47.13289917 -14.32513428 47.13470459 C-16.99151757 47.13911601 -19.65783474 47.136184 -22.32421875 47.1328125 C-24.18732211 47.1334866 -26.05042538 47.13445751 -27.91352844 47.13571167 C-31.83013745 47.13718838 -35.74672371 47.13503809 -39.66333008 47.13037109 C-44.64005991 47.12472511 -49.6167352 47.12792002 -54.59346294 47.13394356 C-58.45008234 47.13759401 -62.30668928 47.13638935 -66.1633091 47.13381577 C-67.99499328 47.13315614 -69.82667865 47.13394054 -71.65836143 47.13629532 C-81.63175186 47.14628742 -91.52458105 46.96308455 -101.4724884 46.22018433 C-106.9831541 45.87621318 -112.47986988 45.9149295 -118 46 C-118.33 45.34 -118.66 44.68 -119 44 C-96.87168098 42.99612093 -74.77295826 42.84221492 -52.62548828 42.86962891 C-47.87486397 42.87542601 -43.12429495 42.87196585 -38.37367249 42.86605644 C-34.67453591 42.86244976 -30.9754126 42.8635882 -27.27627563 42.86618423 C-25.52202345 42.86684806 -23.76777004 42.86604425 -22.01351929 42.86370468 C-19.58450068 42.86116553 -17.15557422 42.86503203 -14.7265625 42.87060547 C-14.01398788 42.86858124 -13.30141327 42.86655701 -12.56724548 42.86447144 C-8.91921354 42.87997907 -5.54799404 43.13474165 -2 44 C-2 43.34 -2 42.68 -2 42 C-1.34 42 -0.68 42 0 42 C-0.16242188 40.71609375 -0.32484375 39.4321875 -0.4921875 38.109375 C-1.04168284 33.1425585 -1.15225377 28.24327973 -1.125 23.25 C-1.12306641 22.3847168 -1.12113281 21.51943359 -1.11914062 20.62792969 C-1.07289713 13.71452761 -0.70310088 6.88034433 0 0 Z " fill="#000000" transform="translate(320,97)"/>
<path d="M0 0 C0.92093948 -0.00281982 1.84187897 -0.00563965 2.79072571 -0.00854492 C3.79392853 -0.00652069 4.79713135 -0.00449646 5.83073425 -0.00241089 C6.89296707 -0.00416321 7.95519989 -0.00591553 9.04962158 -0.00772095 C12.56546151 -0.01212644 16.08125122 -0.00920539 19.59709167 -0.00582886 C22.04083262 -0.00650242 24.4845735 -0.00747288 26.92831421 -0.00872803 C32.05367164 -0.01020336 37.17901166 -0.00805625 42.30436707 -0.00338745 C48.86816964 0.00230068 55.43193125 -0.00096442 61.99573231 -0.00695992 C67.04437568 -0.01057766 72.09300939 -0.00942119 77.14165306 -0.00683212 C79.56132194 -0.00616575 81.98099171 -0.00698117 84.40065956 -0.00931168 C87.78753093 -0.01185706 91.17433652 -0.00797054 94.561203 -0.00241089 C95.55833313 -0.00443512 96.55546326 -0.00645935 97.58280945 -0.00854492 C102.62775879 0.00676161 107.41766263 0.26059464 112.39006042 1.12698364 C109.39877083 4.11827323 106.07992404 3.43524009 102.06681824 3.4458313 C101.20453613 3.45587692 100.34225403 3.46592255 99.45384216 3.47627258 C96.58363005 3.50731076 93.71351333 3.52422285 90.84318542 3.54104614 C88.83607707 3.55977616 86.82897643 3.57935092 84.82188416 3.59973145 C79.51042896 3.6512502 74.19894724 3.69070929 68.88737488 3.72787476 C63.56788688 3.76736798 58.24851879 3.81899436 52.92912292 3.86917114 C42.34657974 3.96566938 31.76407347 4.05824072 21.18121338 4.11167145 C19.24946991 4.12226894 17.31773688 4.13488964 15.38601685 4.14913177 C12.38313789 4.17070145 9.38029068 4.1854312 6.37736511 4.19876099 C5.46395985 4.20658411 4.55055458 4.21440723 3.60947037 4.22246742 C-0.91805328 4.23533006 -5.15393628 4.05636226 -9.60993958 3.12698364 C-8.60993958 1.12698364 -8.60993958 1.12698364 -6.8355608 0.50992012 C-4.51032496 0.10984413 -2.35918087 0.00111407 0 0 Z " fill="#E57326" transform="translate(955.6099395751953,887.8730163574219)"/>
<path d="M0 0 C0.94625244 -0.00426498 1.89250488 -0.00852997 2.86743164 -0.01292419 C3.903853 -0.01247101 4.94027435 -0.01201782 6.00810242 -0.0115509 C7.10105621 -0.01490952 8.19401001 -0.01826813 9.32008362 -0.02172852 C12.94355904 -0.03124965 16.5669883 -0.03318229 20.19047546 -0.03425598 C22.70530212 -0.03746801 25.22012858 -0.04083204 27.73495483 -0.04434204 C33.01171672 -0.0503364 38.28846685 -0.05222441 43.56523132 -0.05158997 C49.65741089 -0.05098968 55.74950176 -0.06153189 61.84165889 -0.07733363 C67.70800527 -0.09200567 73.57431667 -0.09557745 79.44067955 -0.09498024 C81.93374684 -0.09616085 84.42681478 -0.10058714 86.91987038 -0.10831261 C90.40768922 -0.11810751 93.89527992 -0.11523614 97.38310242 -0.10920715 C98.92862541 -0.11763641 98.92862541 -0.11763641 100.50537109 -0.12623596 C105.53606062 -0.10413383 109.67908038 0.12726019 114.38969421 2.13371277 C114.38969421 2.79371277 114.38969421 3.45371277 114.38969421 4.13371277 C113.07968445 4.1034198 111.76967468 4.07312683 110.41996765 4.04191589 C80.92690815 3.37421887 51.45200227 3.03801096 21.95219421 3.07121277 C21.18614365 3.07206879 20.42009308 3.0729248 19.63082886 3.07380676 C10.21709319 3.08511515 0.80339431 3.10506811 -8.61030579 3.13371277 C-6.82695132 -0.43299617 -3.57194982 0.0072757 0 0 Z " fill="#000000" transform="translate(205.6103057861328,346.8662872314453)"/>
<path d="M0 0 C0.99 0.99 0.99 0.99 2 2 C-2.83234915 8.57261637 -8.12900326 14.34423329 -14 20 C-14.66 20.66 -15.32 21.32 -16 22 C-16.680625 22.144375 -17.36125 22.28875 -18.0625 22.4375 C-18.701875 22.623125 -19.34125 22.80875 -20 23 C-20.495 24.485 -20.495 24.485 -21 26 C-21.763125 26.103125 -22.52625 26.20625 -23.3125 26.3125 C-26.26578515 27.06799155 -26.95867834 27.86992523 -29 30 C-31.12266639 30.70755546 -32.76583825 31 -35 31 C-37.00838196 31.64097297 -39.00827818 32.30899447 -41 33 C-43.88265149 33.96088383 -45.67662271 34.11670941 -48.66796875 34.09765625 C-49.56064453 34.09443359 -50.45332031 34.09121094 -51.37304688 34.08789062 C-52.30181641 34.07951172 -53.23058594 34.07113281 -54.1875 34.0625 C-55.59805664 34.05573242 -55.59805664 34.05573242 -57.03710938 34.04882812 C-59.35813712 34.03704626 -61.67903644 34.02059558 -64 34 C-64 33.34 -64 32.68 -64 32 C-65.98 32.495 -65.98 32.495 -68 33 C-68 32.34 -68 31.68 -68 31 C-68.65226563 30.97421875 -69.30453125 30.9484375 -69.9765625 30.921875 C-75.81474194 30.5429961 -79.28177801 29.70717442 -84 26 C-84.63164063 25.68675781 -85.26328125 25.37351562 -85.9140625 25.05078125 C-91.20818929 22.38388966 -95.99573656 18.33795206 -100 14 C-99.67 13.34 -99.34 12.68 -99 12 C-98.5359375 12.4846875 -98.071875 12.969375 -97.59375 13.46875 C-92.78110929 18.13772979 -87.83780608 21.41290299 -81.875 24.375 C-81.20662109 24.70822266 -80.53824219 25.04144531 -79.84960938 25.38476562 C-66.10884797 31.97762356 -47.49072608 32.85468598 -33 27.875 C-30.97370429 26.97359639 -28.96918757 26.02014856 -27 25 C-26.154375 24.61199219 -25.30875 24.22398438 -24.4375 23.82421875 C-15.02312568 18.95107307 -4.96883353 9.42119332 0 0 Z " fill="#B75C1E" transform="translate(1060,1190)"/>
<path d="M0 0 C0.33 0 0.66 0 1 0 C0.93433838 0.79019531 0.86867676 1.58039062 0.80102539 2.39453125 C0.00768077 12.59363563 -0.32281712 22.77534074 -0.5625 33 C-0.58334656 33.85396362 -0.60419312 34.70792725 -0.62567139 35.58776855 C-0.87382975 45.80748973 -1.09575575 56.02691938 -1.125 66.25 C-1.12959229 67.12269531 -1.13418457 67.99539062 -1.13891602 68.89453125 C-1.13043438 72.18947824 -1.049331 74.852007 0 78 C-0.99 78.99 -0.99 78.99 -2 80 C-3.75367116 78.24632884 -3.23385405 75.7612123 -3.31640625 73.375 C-3.35830078 72.20066406 -3.40019531 71.02632813 -3.44335938 69.81640625 C-3.48267578 68.55699219 -3.52199219 67.29757813 -3.5625 66 C-3.60568359 64.73027344 -3.64886719 63.46054688 -3.69335938 62.15234375 C-3.96089501 53.80353328 -4.07220227 45.47654083 -3.9375 37.125 C-3.98968042 34.51597912 -4.21055023 32.46703052 -5 30 C-4.34 30 -3.68 30 -3 30 C-3.10699219 29.21238281 -3.21398437 28.42476562 -3.32421875 27.61328125 C-4.26048622 19.10633488 -3.32860882 12.19624193 -1 4 C-0.66202116 2.66783665 -0.32654945 1.33501099 0 0 Z " fill="#221105" transform="translate(198,60)"/>
<path d="M0 0 C0.33 0 0.66 0 1 0 C1.04971295 5.95905361 1.0858671 11.91798449 1.10986328 17.87719727 C1.11987483 19.90130722 1.1334881 21.92540289 1.15087891 23.94946289 C1.17534141 26.87129256 1.18653184 29.79292978 1.1953125 32.71484375 C1.20563507 33.60896469 1.21595764 34.50308563 1.22659302 35.42430115 C1.22757015 40.98851874 1.09903467 46.77135785 -1 52 C-1.99 52.66 -2.98 53.32 -4 54 C-3.69127671 51.39533457 -3.37818277 48.79132309 -3.0625 46.1875 C-2.97548828 45.44951172 -2.88847656 44.71152344 -2.79882812 43.95117188 C-2.41783454 40.83266879 -1.99630626 37.98891878 -1 35 C-0.95324716 33.04222483 -0.96243697 31.08297305 -1 29.125 C-1.08172291 19.39997325 -0.52251908 9.70829329 0 0 Z " fill="#F97E2A" transform="translate(1069,1127)"/>
<path d="M0 0 C0.33 0 0.66 0 1 0 C1 22.11 1 44.22 1 67 C0.67 67 0.34 67 0 67 C0 44.89 0 22.78 0 0 Z " fill="#000000" transform="translate(320,404)"/>
<path d="M0 0 C0.66 0.66 1.32 1.32 2 2 C-2.83234915 8.57261637 -8.12900326 14.34423329 -14 20 C-14.66 20.66 -15.32 21.32 -16 22 C-18.125 22.625 -18.125 22.625 -20 23 C-15.49328341 17.5188582 -10.5878202 12.57164384 -5.48828125 7.6484375 C-3.19887502 5.21167545 -1.58152775 2.93032232 0 0 Z " fill="#F47B29" transform="translate(1060,1190)"/>
<path d="M0 0 C4.0956492 4.0956492 3.18332446 9.86342343 3.1875 15.3125 C3.19974609 16.14201172 3.21199219 16.97152344 3.22460938 17.82617188 C3.23673399 22.94679921 2.6559124 27.15007474 1 32 C0.67 32 0.34 32 0 32 C0 21.44 0 10.88 0 0 Z " fill="#000000" transform="translate(1234,977)"/>
<path d="M0 0 C0.33 0 0.66 0 1 0 C0.34 8.58 -0.32 17.16 -1 26 C-4 23 -4 23 -4.1796875 20.46875 C-3.45370771 13.39510075 -2.12474969 6.78850845 0 0 Z " fill="#040200" transform="translate(198,60)"/>
<path d="M0 0 C3.04289559 3.04289559 3.17551926 5.8100256 3.25 9.9375 C3.27578125 10.79214844 3.3015625 11.64679687 3.328125 12.52734375 C3 15 3 15 0 19 C0 12.73 0 6.46 0 0 Z " fill="#C06120" transform="translate(485,859)"/>
<path d="M0 0 C0.33 0 0.66 0 1 0 C1 14.19 1 28.38 1 43 C0.67 43 0.34 43 0 43 C0 28.81 0 14.62 0 0 Z " fill="#F97E2A" transform="translate(1069,844)"/>
<path d="M0 0 C1.98 0 3.96 0 6 0 C3.2054045 2.45585665 0.91290031 4.03514549 -2.5625 5.4375 C-6.26014854 7.11824934 -7.75509759 8.67754443 -10 12 C-10.36923077 6.46153846 -10.36923077 6.46153846 -8.5 4.125 C-8.005 3.75375 -7.51 3.3825 -7 3 C-7 3.66 -7 4.32 -7 5 C-4.00847418 4.22520264 -4.00847418 4.22520264 -1 3 C-0.67 2.01 -0.34 1.02 0 0 Z " fill="#B75C1E" transform="translate(459,847)"/>
<path d="M0 0 C0.66 0 1.32 0 2 0 C1.40546697 11.70615034 1.40546697 11.70615034 -2 16 C-3.18056334 12.4998791 -2.82576105 9.90750019 -2.125 6.3125 C-1.85042969 4.85263672 -1.85042969 4.85263672 -1.5703125 3.36328125 C-1 1 -1 1 0 0 Z " fill="#B15A1E" transform="translate(1068,1165)"/>
<path d="M0 0 C3 1 3 1 4.25 3.25 C6.60663408 6.95328212 9.34916102 8.58906859 13 11 C10 12 10 12 8.015625 11.3125 C5.68965379 9.79791409 4.38028891 8.23958881 2.75 6 C2.22921875 5.29875 1.7084375 4.5975 1.171875 3.875 C0 2 0 2 0 0 Z " fill="#F97E2A" transform="translate(447,877)"/>
<path d="M0 0 C0.49628906 0.37511719 0.99257813 0.75023437 1.50390625 1.13671875 C5.95741524 4.49163919 10.45004098 7.77711236 15 11 C14.34 11.66 13.68 12.32 13 13 C11.5805831 11.92027262 10.1645917 10.83604137 8.75 9.75 C7.96109375 9.14671875 7.1721875 8.5434375 6.359375 7.921875 C4.07114774 6.05795478 1.97564512 4.19314734 0 2 C0 1.34 0 0.68 0 0 Z " fill="#F07928" transform="translate(960,1202)"/>
<path d="M0 0 C0.66 0.33 1.32 0.66 2 1 C2 4.63 2 8.26 2 12 C1.01 12.495 1.01 12.495 0 13 C-1.76462683 9.91190305 -2 8.76687864 -2 5 C-1.34 5 -0.68 5 0 5 C0 3.35 0 1.7 0 0 Z " fill="#4D270D" transform="translate(195,85)"/>
<path d="M0 0 C2.24434537 3.36651805 2.20138902 4.21596988 1.9765625 8.10546875 C1.925 9.08837891 1.8734375 10.07128906 1.8203125 11.08398438 C1.75585938 12.10814453 1.69140625 13.13230469 1.625 14.1875 C1.56828125 15.22326172 1.5115625 16.25902344 1.453125 17.32617188 C1.31163334 19.88481271 1.16022134 22.44247484 1 25 C0.67 25 0.34 25 0 25 C0 16.75 0 8.5 0 0 Z " fill="#000000" transform="translate(320,351)"/>
<path d="M0 0 C0.33 0 0.66 0 1 0 C1 7.92 1 15.84 1 24 C0.67 24 0.34 24 0 24 C0 16.08 0 8.16 0 0 Z " fill="#F97E2A" transform="translate(193,448)"/>
<path d="M0 0 C0.33 0 0.66 0 1 0 C1 6.6 1 13.2 1 20 C0.67 20 0.34 20 0 20 C0 13.4 0 6.8 0 0 Z " fill="#000000" transform="translate(941,863)"/>
<path d="M0 0 C1.5 1.125 1.5 1.125 3 3 C3.1875 6.1875 3.1875 6.1875 3 9 C2.34 8.67 1.68 8.34 1 8 C0.40644386 5.35139573 0.25790731 2.70802678 0 0 Z " fill="#000000" transform="translate(318,59)"/>
<path d="M0 0 C0.33 0 0.66 0 1 0 C1 4.62 1 9.24 1 14 C0.67 14 0.34 14 0 14 C0 9.38 0 4.76 0 0 Z " fill="#A0511B" transform="translate(941,1113)"/>
<path d="M0 0 C0 0.66 0 1.32 0 2 C-2.64 2.33 -5.28 2.66 -8 3 C-7.67 2.34 -7.34 1.68 -7 1 C-4.61370553 0.38812962 -2.46459429 0 0 0 Z " fill="#000000" transform="translate(1191,1054)"/>
<path d="M0 0 C3.63 0.33 7.26 0.66 11 1 C11 1.33 11 1.66 11 2 C9.741875 2.04125 8.48375 2.0825 7.1875 2.125 C6.47980469 2.14820313 5.77210938 2.17140625 5.04296875 2.1953125 C3 2 3 2 0 0 Z " fill="#000000" transform="translate(241,1055)"/>
<path d="M0 0 C2.625 0.375 2.625 0.375 5 1 C2 3 2 3 -0.1875 2.625 C-0.785625 2.41875 -1.38375 2.2125 -2 2 C-1.34 1.34 -0.68 0.68 0 0 Z " fill="#A6541C" transform="translate(383,805)"/>
<path d="M0 0 C1 3 1 3 0 6 C-0.66 6 -1.32 6 -2 6 C-1.34 4.02 -0.68 2.04 0 0 Z " fill="#F97E2A" transform="translate(404,871)"/>
<path d="M0 0 C0.33 0 0.66 0 1 0 C1 2.64 1 5.28 1 8 C0.67 8 0.34 8 0 8 C0 5.36 0 2.72 0 0 Z " fill="#3E1F0A" transform="translate(941,1104)"/>
<path d="M0 0 C0.33 0.66 0.66 1.32 1 2 C-0.65 2.33 -2.3 2.66 -4 3 C-3 1 -3 1 0 0 Z " fill="#000000" transform="translate(1200,1050)"/>
<path d="M0 0 C0.66 0.33 1.32 0.66 2 1 C0.35 1.66 -1.3 2.32 -3 3 C-2.01 2.01 -1.02 1.02 0 0 Z " fill="#000000" transform="translate(1207,1046)"/>
<path d="M0 0 C0.33 0.66 0.66 1.32 1 2 C0.67 2.66 0.34 3.32 0 4 C-0.66 4 -1.32 4 -2 4 C-1.34 2.68 -0.68 1.36 0 0 Z " fill="#000000" transform="translate(1228,1023)"/>
<path d="M0 0 C0.66 1.32 1.32 2.64 2 4 C1.34 4 0.68 4 0 4 C-0.33 3.01 -0.66 2.02 -1 1 C-0.67 0.67 -0.34 0.34 0 0 Z " fill="#000000" transform="translate(1231,968)"/>
<path d="M0 0 C2.31 0 4.62 0 7 0 C7 0.33 7 0.66 7 1 C4.69 1 2.38 1 0 1 C0 0.67 0 0.34 0 0 Z " fill="#F97E2A" transform="translate(462,889)"/>
<path d="M0 0 C0.33 0.66 0.66 1.32 1 2 C0.34 2.66 -0.32 3.32 -1 4 C-1 1 -1 1 0 0 Z " fill="#000000" transform="translate(1232,1015)"/>
<path d="M0 0 C0.33 0 0.66 0 1 0 C1 1.98 1 3.96 1 6 C0.67 6 0.34 6 0 6 C0 4.02 0 2.04 0 0 Z " fill="#CF6923" transform="translate(193,102)"/>
<path d="M0 0 C1.32 0.33 2.64 0.66 4 1 C3.01 1.495 3.01 1.495 2 2 C1.34 1.34 0.68 0.68 0 0 Z " fill="#000000" transform="translate(231,1051)"/>
<path d="M0 0 C0.66 1.32 1.32 2.64 2 4 C1.34 3.67 0.68 3.34 0 3 C0 2.01 0 1.02 0 0 Z " fill="#000000" transform="translate(1227,960)"/>
<path d="M0 0 C0.33 0 0.66 0 1 0 C1 1.65 1 3.3 1 5 C0.67 5 0.34 5 0 5 C0 3.35 0 1.7 0 0 Z " fill="#F97E2A" transform="translate(193,389)"/>
<path d="M0 0 C0.66 0.33 1.32 0.66 2 1 C1.01 1 0.02 1 -1 1 C-0.67 0.67 -0.34 0.34 0 0 Z " fill="#000000" transform="translate(1223,1031)"/>
<path d="M0 0 C0.66 0.33 1.32 0.66 2 1 C1.01 1 0.02 1 -1 1 C-0.67 0.67 -0.34 0.34 0 0 Z " fill="#F97E2A" transform="translate(397,883)"/>
<path d="M0 0 C0.33 0.66 0.66 1.32 1 2 C0.34 1.67 -0.32 1.34 -1 1 C-0.67 0.67 -0.34 0.34 0 0 Z " fill="#F97E2A" transform="translate(1063,1184)"/>
<path d="M0 0 C0.99 0.495 0.99 0.495 2 1 C1.01 1.495 1.01 1.495 0 2 C0 1.34 0 0.68 0 0 Z " fill="#F97E2A" transform="translate(394,885)"/>
<path d="" fill="#000000" transform="translate(0,0)"/>
<path d="M0 0 C0.66 0.66 1.32 1.32 2 2 C1.34 2 0.68 2 0 2 C0 1.34 0 0.68 0 0 Z " fill="#000000" transform="translate(307,38)"/>
<path d="" fill="#F97E2A" transform="translate(0,0)"/>
<path d="M0 0 C2 1 2 1 2 1 Z " fill="#F97E2A" transform="translate(473,888)"/>
<path d="M0 0 C2 1 2 1 2 1 Z " fill="#F97E2A" transform="translate(388,888)"/>
<path d="" fill="#000000" transform="translate(0,0)"/>
<path d="" fill="#F97E2A" transform="translate(0,0)"/>
<path d="" fill="#000000" transform="translate(0,0)"/>
<path d="" fill="#000000" transform="translate(0,0)"/>
<path d="" fill="#000000" transform="translate(0,0)"/>
<path d="" fill="#000000" transform="translate(0,0)"/>
<path d="" fill="#000000" transform="translate(0,0)"/>
<path d="" fill="#000000" transform="translate(0,0)"/>
<path d="" fill="#000000" transform="translate(0,0)"/>
<path d="" fill="#000000" transform="translate(0,0)"/>
<path d="" fill="#000000" transform="translate(0,0)"/>
<path d="" fill="#000000" transform="translate(0,0)"/>
<path d="" fill="#000000" transform="translate(0,0)"/>
<path d="" fill="#000000" transform="translate(0,0)"/>
<path d="" fill="#F97E2A" transform="translate(0,0)"/>
<path d="" fill="#F97E2A" transform="translate(0,0)"/>
<path d="" fill="#F97E2A" transform="translate(0,0)"/>
<path d="" fill="#000000" transform="translate(0,0)"/>
<path d="" fill="#000000" transform="translate(0,0)"/>
<path d="" fill="#F97E2A" transform="translate(0,0)"/>
<path d="" fill="#F97E2A" transform="translate(0,0)"/>
<path d="" fill="#F97E2A" transform="translate(0,0)"/>
<path d="" fill="#000000" transform="translate(0,0)"/>
<path d="" fill="#000000" transform="translate(0,0)"/>
<path d="" fill="#F97E2A" transform="translate(0,0)"/>
<path d="" fill="#000000" transform="translate(0,0)"/>
<path d="" fill="#000000" transform="translate(0,0)"/>
<path d="" fill="#F97E2A" transform="translate(0,0)"/>
<path d="" fill="#000000" transform="translate(0,0)"/>
<path d="" fill="#F97E2A" transform="translate(0,0)"/>
<path d="" fill="#000000" transform="translate(0,0)"/>
<path d="" fill="#F97E2A" transform="translate(0,0)"/>
<path d="" fill="#F97E2A" transform="translate(0,0)"/>
<path d="" fill="#000000" transform="translate(0,0)"/>
<path d="" fill="#000000" transform="translate(0,0)"/>
<path d="" fill="#000000" transform="translate(0,0)"/>
</svg>
